<mxfile host="app.diagrams.net" modified="2023-05-15T21:21:06.629Z" agent="Mozilla/5.0 (Windows NT 10.0; Win64; x64) AppleWebKit/537.36 (KHTML, like Gecko) Chrome/112.0.0.0 Safari/537.36 OPR/98.0.0.0" etag="7tRzk-xYV46vuMGk05Mi" version="21.3.2" type="device">
  <diagram id="YnoaGCBAvLb0pGhigKpR" name="Страница 1">
    <mxGraphModel dx="3147" dy="1282" grid="1" gridSize="10" guides="1" tooltips="1" connect="1" arrows="1" fold="1" page="1" pageScale="1" pageWidth="827" pageHeight="1169" math="0" shadow="0">
      <root>
        <mxCell id="0" />
        <mxCell id="1" parent="0" />
        <mxCell id="pv3sk8wiYObTqqPQqEbA-4" value="" style="endArrow=none;dashed=1;html=1;rounded=0;fillColor=#60a917;strokeColor=#2D7600;" parent="1" edge="1">
          <mxGeometry width="50" height="50" relative="1" as="geometry">
            <mxPoint x="380" y="1180" as="sourcePoint" />
            <mxPoint x="380" as="targetPoint" />
          </mxGeometry>
        </mxCell>
        <mxCell id="pv3sk8wiYObTqqPQqEbA-5" value="Пользователь" style="text;html=1;strokeColor=none;fillColor=none;align=center;verticalAlign=middle;whiteSpace=wrap;rounded=0;" parent="1" vertex="1">
          <mxGeometry x="300" y="10" width="60" height="30" as="geometry" />
        </mxCell>
        <mxCell id="pv3sk8wiYObTqqPQqEbA-6" value="Приложение" style="text;html=1;strokeColor=none;fillColor=none;align=center;verticalAlign=middle;whiteSpace=wrap;rounded=0;" parent="1" vertex="1">
          <mxGeometry x="390" y="10" width="60" height="30" as="geometry" />
        </mxCell>
        <mxCell id="pv3sk8wiYObTqqPQqEbA-7" value="Попытка входа в систему" style="ellipse;whiteSpace=wrap;html=1;" parent="1" vertex="1">
          <mxGeometry x="85" y="80" width="140" height="30" as="geometry" />
        </mxCell>
        <mxCell id="pv3sk8wiYObTqqPQqEbA-13" value="" style="ellipse;html=1;shape=startState;fillColor=#000000;strokeColor=#ff0000;" parent="1" vertex="1">
          <mxGeometry x="140" y="10" width="30" height="30" as="geometry" />
        </mxCell>
        <mxCell id="pv3sk8wiYObTqqPQqEbA-14" value="" style="edgeStyle=orthogonalEdgeStyle;html=1;verticalAlign=bottom;endArrow=open;endSize=8;strokeColor=#ff0000;rounded=0;entryX=0.5;entryY=0;entryDx=0;entryDy=0;" parent="1" source="pv3sk8wiYObTqqPQqEbA-13" target="pv3sk8wiYObTqqPQqEbA-7" edge="1">
          <mxGeometry relative="1" as="geometry">
            <mxPoint x="155" y="100" as="targetPoint" />
          </mxGeometry>
        </mxCell>
        <mxCell id="pv3sk8wiYObTqqPQqEbA-16" value="Condition" style="rhombus;whiteSpace=wrap;html=1;fillColor=#60a917;strokeColor=#2D7600;fontColor=#ffffff;" parent="1" vertex="1">
          <mxGeometry x="115" y="150" width="80" height="40" as="geometry" />
        </mxCell>
        <mxCell id="pv3sk8wiYObTqqPQqEbA-17" value="логин" style="edgeStyle=orthogonalEdgeStyle;html=1;align=left;verticalAlign=bottom;endArrow=open;endSize=8;strokeColor=#ff0000;rounded=0;exitX=0.5;exitY=1;exitDx=0;exitDy=0;entryX=0;entryY=0.5;entryDx=0;entryDy=0;" parent="1" source="pv3sk8wiYObTqqPQqEbA-16" target="pv3sk8wiYObTqqPQqEbA-21" edge="1">
          <mxGeometry x="-0.7412" y="30" relative="1" as="geometry">
            <mxPoint x="480" y="200" as="targetPoint" />
            <mxPoint x="200" y="170" as="sourcePoint" />
            <Array as="points">
              <mxPoint x="155" y="195" />
            </Array>
            <mxPoint as="offset" />
          </mxGeometry>
        </mxCell>
        <mxCell id="pv3sk8wiYObTqqPQqEbA-18" value="регистрация&lt;br&gt;" style="edgeStyle=orthogonalEdgeStyle;html=1;align=left;verticalAlign=top;endArrow=open;endSize=8;strokeColor=#ff0000;rounded=0;entryX=0;entryY=0.5;entryDx=0;entryDy=0;" parent="1" source="pv3sk8wiYObTqqPQqEbA-16" target="pv3sk8wiYObTqqPQqEbA-20" edge="1">
          <mxGeometry x="-1" y="-27" relative="1" as="geometry">
            <mxPoint x="480" y="170" as="targetPoint" />
            <mxPoint x="-25" y="-17" as="offset" />
          </mxGeometry>
        </mxCell>
        <mxCell id="pv3sk8wiYObTqqPQqEbA-19" value="" style="endArrow=classic;html=1;rounded=0;exitX=0.5;exitY=1;exitDx=0;exitDy=0;entryX=0.5;entryY=0;entryDx=0;entryDy=0;" parent="1" source="pv3sk8wiYObTqqPQqEbA-7" target="pv3sk8wiYObTqqPQqEbA-16" edge="1">
          <mxGeometry width="50" height="50" relative="1" as="geometry">
            <mxPoint x="380" y="250" as="sourcePoint" />
            <mxPoint x="430" y="200" as="targetPoint" />
          </mxGeometry>
        </mxCell>
        <mxCell id="pv3sk8wiYObTqqPQqEbA-26" style="edgeStyle=orthogonalEdgeStyle;rounded=0;orthogonalLoop=1;jettySize=auto;html=1;exitX=0.5;exitY=0;exitDx=0;exitDy=0;entryX=0.5;entryY=0;entryDx=0;entryDy=0;" parent="1" source="pv3sk8wiYObTqqPQqEbA-20" target="pv3sk8wiYObTqqPQqEbA-23" edge="1">
          <mxGeometry relative="1" as="geometry">
            <mxPoint x="690" y="50" as="targetPoint" />
          </mxGeometry>
        </mxCell>
        <mxCell id="pv3sk8wiYObTqqPQqEbA-20" value="проверка базы данных" style="ellipse;whiteSpace=wrap;html=1;" parent="1" vertex="1">
          <mxGeometry x="510" y="120" width="120" height="40" as="geometry" />
        </mxCell>
        <mxCell id="pv3sk8wiYObTqqPQqEbA-21" value="Добавление аккаунта в базу данных" style="ellipse;whiteSpace=wrap;html=1;" parent="1" vertex="1">
          <mxGeometry x="510" y="170" width="120" height="50" as="geometry" />
        </mxCell>
        <mxCell id="pv3sk8wiYObTqqPQqEbA-22" value="" style="endArrow=classic;html=1;rounded=0;exitX=0.5;exitY=1;exitDx=0;exitDy=0;entryX=0;entryY=0.5;entryDx=0;entryDy=0;" parent="1" source="pv3sk8wiYObTqqPQqEbA-21" target="pv3sk8wiYObTqqPQqEbA-16" edge="1">
          <mxGeometry width="50" height="50" relative="1" as="geometry">
            <mxPoint x="380" y="310" as="sourcePoint" />
            <mxPoint x="80" y="130" as="targetPoint" />
            <Array as="points">
              <mxPoint x="570" y="280" />
              <mxPoint x="80" y="280" />
              <mxPoint x="80" y="170" />
            </Array>
          </mxGeometry>
        </mxCell>
        <mxCell id="pv3sk8wiYObTqqPQqEbA-23" value="Успешно?" style="rhombus;whiteSpace=wrap;html=1;fillColor=#60a917;strokeColor=#2D7600;fontColor=#ffffff;" parent="1" vertex="1">
          <mxGeometry x="640" y="260" width="80" height="40" as="geometry" />
        </mxCell>
        <mxCell id="pv3sk8wiYObTqqPQqEbA-28" value="нет" style="text;html=1;strokeColor=none;fillColor=none;align=center;verticalAlign=middle;whiteSpace=wrap;rounded=0;" parent="1" vertex="1">
          <mxGeometry x="580" y="250" width="60" height="30" as="geometry" />
        </mxCell>
        <mxCell id="pv3sk8wiYObTqqPQqEbA-29" value="" style="endArrow=none;html=1;rounded=0;entryX=0;entryY=0.5;entryDx=0;entryDy=0;" parent="1" target="pv3sk8wiYObTqqPQqEbA-23" edge="1">
          <mxGeometry width="50" height="50" relative="1" as="geometry">
            <mxPoint x="570" y="280" as="sourcePoint" />
            <mxPoint x="440" y="260" as="targetPoint" />
          </mxGeometry>
        </mxCell>
        <mxCell id="pv3sk8wiYObTqqPQqEbA-30" value="" style="endArrow=classic;html=1;rounded=0;exitX=0.5;exitY=1;exitDx=0;exitDy=0;entryX=0.5;entryY=0;entryDx=0;entryDy=0;" parent="1" source="pv3sk8wiYObTqqPQqEbA-23" target="pv3sk8wiYObTqqPQqEbA-32" edge="1">
          <mxGeometry width="50" height="50" relative="1" as="geometry">
            <mxPoint x="390" y="310" as="sourcePoint" />
            <mxPoint x="680" y="360" as="targetPoint" />
          </mxGeometry>
        </mxCell>
        <mxCell id="pv3sk8wiYObTqqPQqEbA-31" value="да" style="text;html=1;strokeColor=none;fillColor=none;align=center;verticalAlign=middle;whiteSpace=wrap;rounded=0;" parent="1" vertex="1">
          <mxGeometry x="660" y="300" width="60" height="30" as="geometry" />
        </mxCell>
        <mxCell id="pv3sk8wiYObTqqPQqEbA-32" value="Предоставление списка услуг" style="ellipse;whiteSpace=wrap;html=1;" parent="1" vertex="1">
          <mxGeometry x="620" y="350" width="120" height="50" as="geometry" />
        </mxCell>
        <mxCell id="pv3sk8wiYObTqqPQqEbA-33" value="" style="endArrow=classic;html=1;rounded=0;exitX=0;exitY=0.5;exitDx=0;exitDy=0;" parent="1" source="pv3sk8wiYObTqqPQqEbA-32" edge="1">
          <mxGeometry width="50" height="50" relative="1" as="geometry">
            <mxPoint x="390" y="300" as="sourcePoint" />
            <mxPoint x="170" y="400" as="targetPoint" />
            <Array as="points">
              <mxPoint x="170" y="370" />
            </Array>
          </mxGeometry>
        </mxCell>
        <mxCell id="pv3sk8wiYObTqqPQqEbA-34" value="" style="shape=link;html=1;rounded=0;" parent="1" edge="1">
          <mxGeometry width="100" relative="1" as="geometry">
            <mxPoint x="-180" y="400" as="sourcePoint" />
            <mxPoint x="310" y="400" as="targetPoint" />
          </mxGeometry>
        </mxCell>
        <mxCell id="pv3sk8wiYObTqqPQqEbA-36" value="" style="endArrow=classic;html=1;rounded=0;entryX=0.5;entryY=0;entryDx=0;entryDy=0;" parent="1" target="pv3sk8wiYObTqqPQqEbA-37" edge="1">
          <mxGeometry width="50" height="50" relative="1" as="geometry">
            <mxPoint x="310" y="400" as="sourcePoint" />
            <mxPoint x="270" y="460" as="targetPoint" />
          </mxGeometry>
        </mxCell>
        <mxCell id="pv3sk8wiYObTqqPQqEbA-37" value="Просмотр списка плейлистов" style="ellipse;whiteSpace=wrap;html=1;" parent="1" vertex="1">
          <mxGeometry x="250" y="450" width="120" height="30" as="geometry" />
        </mxCell>
        <mxCell id="pv3sk8wiYObTqqPQqEbA-38" value="" style="endArrow=classic;html=1;rounded=0;entryX=0.5;entryY=0;entryDx=0;entryDy=0;" parent="1" target="pv3sk8wiYObTqqPQqEbA-39" edge="1">
          <mxGeometry width="50" height="50" relative="1" as="geometry">
            <mxPoint x="80" y="400" as="sourcePoint" />
            <mxPoint x="80" y="450" as="targetPoint" />
          </mxGeometry>
        </mxCell>
        <mxCell id="pv3sk8wiYObTqqPQqEbA-39" value="Добавить трек в плейлист" style="ellipse;whiteSpace=wrap;html=1;" parent="1" vertex="1">
          <mxGeometry x="20" y="620" width="120" height="30" as="geometry" />
        </mxCell>
        <mxCell id="pv3sk8wiYObTqqPQqEbA-40" value="" style="endArrow=classic;html=1;rounded=0;" parent="1" target="pv3sk8wiYObTqqPQqEbA-41" edge="1">
          <mxGeometry width="50" height="50" relative="1" as="geometry">
            <mxPoint x="190" y="400" as="sourcePoint" />
            <mxPoint x="140" y="470" as="targetPoint" />
          </mxGeometry>
        </mxCell>
        <mxCell id="pv3sk8wiYObTqqPQqEbA-55" style="edgeStyle=orthogonalEdgeStyle;rounded=0;orthogonalLoop=1;jettySize=auto;html=1;entryX=0;entryY=0.5;entryDx=0;entryDy=0;" parent="1" source="pv3sk8wiYObTqqPQqEbA-41" target="pv3sk8wiYObTqqPQqEbA-45" edge="1">
          <mxGeometry relative="1" as="geometry" />
        </mxCell>
        <mxCell id="pv3sk8wiYObTqqPQqEbA-41" value="Создание плейлиста" style="ellipse;whiteSpace=wrap;html=1;" parent="1" vertex="1">
          <mxGeometry x="130" y="520" width="120" height="40" as="geometry" />
        </mxCell>
        <mxCell id="pv3sk8wiYObTqqPQqEbA-42" value="" style="endArrow=classic;html=1;rounded=0;exitX=1;exitY=0.5;exitDx=0;exitDy=0;entryX=0;entryY=0.5;entryDx=0;entryDy=0;" parent="1" source="pv3sk8wiYObTqqPQqEbA-37" target="pv3sk8wiYObTqqPQqEbA-43" edge="1">
          <mxGeometry width="50" height="50" relative="1" as="geometry">
            <mxPoint x="390" y="550" as="sourcePoint" />
            <mxPoint x="580" y="465" as="targetPoint" />
          </mxGeometry>
        </mxCell>
        <mxCell id="pv3sk8wiYObTqqPQqEbA-43" value="предоставить список плейлистов" style="ellipse;whiteSpace=wrap;html=1;" parent="1" vertex="1">
          <mxGeometry x="720" y="440" width="120" height="50" as="geometry" />
        </mxCell>
        <mxCell id="pv3sk8wiYObTqqPQqEbA-45" value="есть ли &lt;br&gt;плейлист с аналогичным названием ?" style="rhombus;whiteSpace=wrap;html=1;fillColor=#60a917;strokeColor=#2D7600;fontColor=#ffffff;" parent="1" vertex="1">
          <mxGeometry x="547.5" y="500" width="125" height="80" as="geometry" />
        </mxCell>
        <mxCell id="pv3sk8wiYObTqqPQqEbA-46" value="да" style="edgeStyle=orthogonalEdgeStyle;html=1;align=left;verticalAlign=bottom;endArrow=open;endSize=8;strokeColor=#ff0000;rounded=0;" parent="1" source="pv3sk8wiYObTqqPQqEbA-45" edge="1">
          <mxGeometry x="-1" relative="1" as="geometry">
            <mxPoint x="780" y="940" as="targetPoint" />
          </mxGeometry>
        </mxCell>
        <mxCell id="pv3sk8wiYObTqqPQqEbA-47" value="нет" style="edgeStyle=orthogonalEdgeStyle;html=1;align=left;verticalAlign=top;endArrow=open;endSize=8;strokeColor=#ff0000;rounded=0;entryX=0.5;entryY=0;entryDx=0;entryDy=0;" parent="1" source="pv3sk8wiYObTqqPQqEbA-45" target="pv3sk8wiYObTqqPQqEbA-53" edge="1">
          <mxGeometry x="-1" relative="1" as="geometry">
            <mxPoint x="505" y="630" as="targetPoint" />
          </mxGeometry>
        </mxCell>
        <mxCell id="pv3sk8wiYObTqqPQqEbA-48" value="" style="ellipse;html=1;shape=endState;fillColor=#000000;strokeColor=#ff0000;" parent="1" vertex="1">
          <mxGeometry x="414" y="1240" width="30" height="30" as="geometry" />
        </mxCell>
        <mxCell id="pv3sk8wiYObTqqPQqEbA-49" value="" style="shape=link;html=1;rounded=0;" parent="1" edge="1">
          <mxGeometry width="100" relative="1" as="geometry">
            <mxPoint x="5" y="1169" as="sourcePoint" />
            <mxPoint x="895" y="1169" as="targetPoint" />
          </mxGeometry>
        </mxCell>
        <mxCell id="pv3sk8wiYObTqqPQqEbA-50" value="" style="endArrow=classic;html=1;rounded=0;entryX=0.5;entryY=0;entryDx=0;entryDy=0;" parent="1" target="pv3sk8wiYObTqqPQqEbA-48" edge="1">
          <mxGeometry width="50" height="50" relative="1" as="geometry">
            <mxPoint x="429" y="1160" as="sourcePoint" />
            <mxPoint x="440" y="730" as="targetPoint" />
          </mxGeometry>
        </mxCell>
        <mxCell id="pv3sk8wiYObTqqPQqEbA-52" style="edgeStyle=orthogonalEdgeStyle;rounded=0;orthogonalLoop=1;jettySize=auto;html=1;" parent="1" source="pv3sk8wiYObTqqPQqEbA-51" edge="1">
          <mxGeometry relative="1" as="geometry">
            <mxPoint x="730" y="1170" as="targetPoint" />
          </mxGeometry>
        </mxCell>
        <mxCell id="pv3sk8wiYObTqqPQqEbA-51" value="выдать сообщение об ошибке" style="ellipse;whiteSpace=wrap;html=1;" parent="1" vertex="1">
          <mxGeometry x="670" y="980" width="120" height="50" as="geometry" />
        </mxCell>
        <mxCell id="pv3sk8wiYObTqqPQqEbA-53" value="Создать плейлист и добавить его в список плейлистов" style="ellipse;whiteSpace=wrap;html=1;" parent="1" vertex="1">
          <mxGeometry x="550" y="630" width="120" height="70" as="geometry" />
        </mxCell>
        <mxCell id="pv3sk8wiYObTqqPQqEbA-54" value="" style="endArrow=classic;html=1;rounded=0;exitX=0.5;exitY=1;exitDx=0;exitDy=0;" parent="1" source="pv3sk8wiYObTqqPQqEbA-53" edge="1">
          <mxGeometry width="50" height="50" relative="1" as="geometry">
            <mxPoint x="410" y="740" as="sourcePoint" />
            <mxPoint x="610" y="1170" as="targetPoint" />
          </mxGeometry>
        </mxCell>
        <mxCell id="pv3sk8wiYObTqqPQqEbA-56" value="" style="endArrow=classic;html=1;rounded=0;exitX=1;exitY=0.5;exitDx=0;exitDy=0;" parent="1" source="pv3sk8wiYObTqqPQqEbA-39" target="pv3sk8wiYObTqqPQqEbA-57" edge="1">
          <mxGeometry width="50" height="50" relative="1" as="geometry">
            <mxPoint x="410" y="650" as="sourcePoint" />
            <mxPoint x="410" y="630" as="targetPoint" />
          </mxGeometry>
        </mxCell>
        <mxCell id="pv3sk8wiYObTqqPQqEbA-60" style="edgeStyle=orthogonalEdgeStyle;rounded=0;orthogonalLoop=1;jettySize=auto;html=1;exitX=0.605;exitY=0.145;exitDx=0;exitDy=0;exitPerimeter=0;" parent="1" source="pv3sk8wiYObTqqPQqEbA-57" edge="1">
          <mxGeometry relative="1" as="geometry">
            <mxPoint x="730" y="940" as="targetPoint" />
            <Array as="points">
              <mxPoint x="435" y="611" />
              <mxPoint x="435" y="610" />
              <mxPoint x="730" y="610" />
            </Array>
          </mxGeometry>
        </mxCell>
        <mxCell id="pv3sk8wiYObTqqPQqEbA-57" value="есть ли&amp;nbsp;&lt;br&gt;уже в плейлисте этот трек?" style="rhombus;whiteSpace=wrap;html=1;fillColor=#60a917;strokeColor=#2D7600;fontColor=#ffffff;" parent="1" vertex="1">
          <mxGeometry x="380" y="601.25" width="110" height="67.5" as="geometry" />
        </mxCell>
        <mxCell id="pv3sk8wiYObTqqPQqEbA-58" value="" style="shape=link;html=1;rounded=0;" parent="1" edge="1">
          <mxGeometry width="100" relative="1" as="geometry">
            <mxPoint x="680" y="940" as="sourcePoint" />
            <mxPoint x="780" y="940" as="targetPoint" />
          </mxGeometry>
        </mxCell>
        <mxCell id="pv3sk8wiYObTqqPQqEbA-59" value="" style="endArrow=classic;html=1;rounded=0;entryX=0.5;entryY=0;entryDx=0;entryDy=0;" parent="1" target="pv3sk8wiYObTqqPQqEbA-51" edge="1">
          <mxGeometry width="50" height="50" relative="1" as="geometry">
            <mxPoint x="730" y="770" as="sourcePoint" />
            <mxPoint x="460" y="690" as="targetPoint" />
          </mxGeometry>
        </mxCell>
        <mxCell id="pv3sk8wiYObTqqPQqEbA-61" value="да" style="text;html=1;strokeColor=none;fillColor=none;align=center;verticalAlign=middle;whiteSpace=wrap;rounded=0;" parent="1" vertex="1">
          <mxGeometry x="444" y="585" width="60" height="30" as="geometry" />
        </mxCell>
        <mxCell id="pv3sk8wiYObTqqPQqEbA-62" value="" style="endArrow=classic;html=1;rounded=0;exitX=0.5;exitY=1;exitDx=0;exitDy=0;entryX=0.5;entryY=0;entryDx=0;entryDy=0;" parent="1" source="pv3sk8wiYObTqqPQqEbA-57" target="pv3sk8wiYObTqqPQqEbA-64" edge="1">
          <mxGeometry width="50" height="50" relative="1" as="geometry">
            <mxPoint x="410" y="740" as="sourcePoint" />
            <mxPoint x="435" y="700" as="targetPoint" />
          </mxGeometry>
        </mxCell>
        <mxCell id="pv3sk8wiYObTqqPQqEbA-63" value="нет" style="text;html=1;strokeColor=none;fillColor=none;align=center;verticalAlign=middle;whiteSpace=wrap;rounded=0;" parent="1" vertex="1">
          <mxGeometry x="420" y="657.5" width="60" height="30" as="geometry" />
        </mxCell>
        <mxCell id="pv3sk8wiYObTqqPQqEbA-64" value="Добавить трек в плейлист" style="ellipse;whiteSpace=wrap;html=1;" parent="1" vertex="1">
          <mxGeometry x="375" y="720" width="120" height="50" as="geometry" />
        </mxCell>
        <mxCell id="pv3sk8wiYObTqqPQqEbA-65" value="" style="endArrow=classic;html=1;rounded=0;exitX=0.5;exitY=1;exitDx=0;exitDy=0;" parent="1" source="pv3sk8wiYObTqqPQqEbA-64" edge="1">
          <mxGeometry width="50" height="50" relative="1" as="geometry">
            <mxPoint x="410" y="730" as="sourcePoint" />
            <mxPoint x="430" y="1170" as="targetPoint" />
          </mxGeometry>
        </mxCell>
        <mxCell id="fIs_sxLoX76aN4BNfvzW-1" value="" style="endArrow=classic;html=1;rounded=0;exitX=1;exitY=0.5;exitDx=0;exitDy=0;" edge="1" parent="1" source="pv3sk8wiYObTqqPQqEbA-43">
          <mxGeometry width="50" height="50" relative="1" as="geometry">
            <mxPoint x="890" y="490" as="sourcePoint" />
            <mxPoint x="840" y="1170" as="targetPoint" />
          </mxGeometry>
        </mxCell>
        <mxCell id="fIs_sxLoX76aN4BNfvzW-2" value="предложить добавить трек" style="ellipse;whiteSpace=wrap;html=1;" vertex="1" parent="1">
          <mxGeometry x="-100" y="780" width="120" height="30" as="geometry" />
        </mxCell>
        <mxCell id="fIs_sxLoX76aN4BNfvzW-4" value="" style="endArrow=classic;html=1;rounded=0;" edge="1" parent="1" target="fIs_sxLoX76aN4BNfvzW-2">
          <mxGeometry width="50" height="50" relative="1" as="geometry">
            <mxPoint x="-40" y="400" as="sourcePoint" />
            <mxPoint x="90" y="630" as="targetPoint" />
          </mxGeometry>
        </mxCell>
        <mxCell id="fIs_sxLoX76aN4BNfvzW-6" value="Трек соответствует требованиям?" style="rhombus;whiteSpace=wrap;html=1;fillColor=#60a917;strokeColor=#2D7600;fontColor=#ffffff;" vertex="1" parent="1">
          <mxGeometry x="130" y="761.25" width="120" height="67.5" as="geometry" />
        </mxCell>
        <mxCell id="fIs_sxLoX76aN4BNfvzW-7" value="да" style="text;html=1;strokeColor=none;fillColor=none;align=center;verticalAlign=middle;whiteSpace=wrap;rounded=0;" vertex="1" parent="1">
          <mxGeometry x="190" y="820" width="60" height="30" as="geometry" />
        </mxCell>
        <mxCell id="fIs_sxLoX76aN4BNfvzW-8" value="нет" style="text;html=1;strokeColor=none;fillColor=none;align=center;verticalAlign=middle;whiteSpace=wrap;rounded=0;" vertex="1" parent="1">
          <mxGeometry x="225" y="750" width="60" height="30" as="geometry" />
        </mxCell>
        <mxCell id="fIs_sxLoX76aN4BNfvzW-11" value="" style="endArrow=classic;html=1;rounded=0;exitX=1;exitY=0.5;exitDx=0;exitDy=0;entryX=0.5;entryY=0;entryDx=0;entryDy=0;" edge="1" parent="1" source="fIs_sxLoX76aN4BNfvzW-6" target="fIs_sxLoX76aN4BNfvzW-13">
          <mxGeometry width="50" height="50" relative="1" as="geometry">
            <mxPoint x="480" y="850" as="sourcePoint" />
            <mxPoint x="320" y="960" as="targetPoint" />
            <Array as="points">
              <mxPoint x="290" y="795" />
              <mxPoint x="320" y="795" />
            </Array>
          </mxGeometry>
        </mxCell>
        <mxCell id="fIs_sxLoX76aN4BNfvzW-12" value="Добавить трек на платформу" style="ellipse;whiteSpace=wrap;html=1;" vertex="1" parent="1">
          <mxGeometry x="130" y="880" width="120" height="50" as="geometry" />
        </mxCell>
        <mxCell id="fIs_sxLoX76aN4BNfvzW-13" value="Выдать сообщение что трек не добавлен" style="ellipse;whiteSpace=wrap;html=1;" vertex="1" parent="1">
          <mxGeometry x="260" y="970" width="120" height="50" as="geometry" />
        </mxCell>
        <mxCell id="fIs_sxLoX76aN4BNfvzW-14" value="" style="endArrow=classic;html=1;rounded=0;exitX=0.5;exitY=1;exitDx=0;exitDy=0;" edge="1" parent="1" source="fIs_sxLoX76aN4BNfvzW-13">
          <mxGeometry width="50" height="50" relative="1" as="geometry">
            <mxPoint x="300" y="1090" as="sourcePoint" />
            <mxPoint x="320" y="1170" as="targetPoint" />
          </mxGeometry>
        </mxCell>
        <mxCell id="fIs_sxLoX76aN4BNfvzW-15" value="" style="endArrow=classic;html=1;rounded=0;exitX=0;exitY=0.25;exitDx=0;exitDy=0;" edge="1" parent="1" source="fIs_sxLoX76aN4BNfvzW-7" target="fIs_sxLoX76aN4BNfvzW-12">
          <mxGeometry width="50" height="50" relative="1" as="geometry">
            <mxPoint x="260" y="990" as="sourcePoint" />
            <mxPoint x="310" y="940" as="targetPoint" />
          </mxGeometry>
        </mxCell>
        <mxCell id="fIs_sxLoX76aN4BNfvzW-16" value="" style="endArrow=classic;html=1;rounded=0;exitX=1;exitY=0.5;exitDx=0;exitDy=0;entryX=0;entryY=0.5;entryDx=0;entryDy=0;" edge="1" parent="1" source="fIs_sxLoX76aN4BNfvzW-2" target="fIs_sxLoX76aN4BNfvzW-6">
          <mxGeometry width="50" height="50" relative="1" as="geometry">
            <mxPoint x="160" y="800" as="sourcePoint" />
            <mxPoint x="210" y="750" as="targetPoint" />
          </mxGeometry>
        </mxCell>
        <mxCell id="fIs_sxLoX76aN4BNfvzW-17" value="Выдать сообщение что трек добавлен" style="ellipse;whiteSpace=wrap;html=1;" vertex="1" parent="1">
          <mxGeometry x="130" y="970" width="120" height="50" as="geometry" />
        </mxCell>
        <mxCell id="fIs_sxLoX76aN4BNfvzW-18" value="" style="endArrow=classic;html=1;rounded=0;exitX=0.5;exitY=1;exitDx=0;exitDy=0;entryX=0.5;entryY=0;entryDx=0;entryDy=0;" edge="1" parent="1" source="fIs_sxLoX76aN4BNfvzW-12" target="fIs_sxLoX76aN4BNfvzW-17">
          <mxGeometry width="50" height="50" relative="1" as="geometry">
            <mxPoint x="250" y="1000" as="sourcePoint" />
            <mxPoint x="300" y="950" as="targetPoint" />
          </mxGeometry>
        </mxCell>
        <mxCell id="fIs_sxLoX76aN4BNfvzW-19" value="" style="endArrow=classic;html=1;rounded=0;exitX=0.5;exitY=1;exitDx=0;exitDy=0;" edge="1" parent="1" source="fIs_sxLoX76aN4BNfvzW-17">
          <mxGeometry width="50" height="50" relative="1" as="geometry">
            <mxPoint x="250" y="1000" as="sourcePoint" />
            <mxPoint x="190" y="1170" as="targetPoint" />
          </mxGeometry>
        </mxCell>
      </root>
    </mxGraphModel>
  </diagram>
</mxfile>
